<?xml version="1.0" standalone="no"?>
<!DOCTYPE svg PUBLIC "-//W3C//DTD SVG 20010904//EN"
 "http://www.w3.org/TR/2001/REC-SVG-20010904/DTD/svg10.dtd">
<svg version="1.0" xmlns="http://www.w3.org/2000/svg"
 width="512.000000pt" height="512.000000pt" viewBox="0 0 512.000000 512.000000"
 preserveAspectRatio="xMidYMid meet">
<metadata>
Created by potrace 1.11, written by Peter Selinger 2001-2013
</metadata>
<g transform="translate(0.000000,512.000000) scale(0.100000,-0.100000)"
fill="#000000" stroke="none">
<path d="M1082 4254 c-189 -229 -345 -421 -347 -427 -2 -7 65 -63 148 -124
366 -271 636 -531 893 -863 175 -226 504 -690 504 -712 0 -5 -25 -66 -56 -136
-60 -135 -163 -395 -210 -527 l-28 -81 358 -459 c196 -253 360 -461 364 -463
4 -1 18 64 30 145 44 287 85 514 93 506 13 -14 95 -264 134 -408 21 -77 41
-143 44 -147 5 -6 228 57 240 67 2 2 -63 240 -145 529 l-147 525 33 137 c153
642 488 1419 848 1969 128 197 331 465 504 668 l58 68 -47 60 c-26 33 -51 63
-55 65 -11 7 -279 -222 -480 -409 -412 -387 -762 -805 -1088 -1304 l-106 -162
-74 167 c-264 599 -494 1005 -753 1327 -107 133 -344 396 -362 401 -5 2 -164
-184 -353 -412z"/>
</g>
</svg>
